<svg width="1200" height="1200" viewBox="0 0 1200 1200" fill="none" xmlns="http://www.w3.org/2000/svg">
<rect width="1200" height="1200" fill="#6E1A7D"/>
<circle cx="477.778" cy="666.667" r="33.3333" fill="#F292D8"/>
<circle cx="600" cy="666.667" r="33.3333" fill="#F292D8"/>
<circle cx="722.222" cy="666.667" r="33.3333" fill="#F292D8"/>
<path d="M911.111 944.445C911.111 952.791 906.434 960.438 899.002 964.236C891.569 968.034 882.632 967.346 875.868 962.457L735.319 860.851C723.037 851.973 708.359 847.222 693.338 847.222H384.223C331.295 847.221 288.889 803.823 288.889 750.912V572.646C300.956 576.008 313.541 577.778 326.324 577.778C328.673 577.778 331.011 577.689 333.333 577.572V750.912C333.333 779.834 356.394 802.777 384.223 802.778H693.338C717.754 802.778 741.536 810.506 761.361 824.837L866.667 900.966V577.572C868.99 577.689 871.326 577.778 873.676 577.778C886.457 577.778 899.044 576.008 911.111 572.646V944.445Z" fill="white"/>
<path fill-rule="evenodd" clip-rule="evenodd" d="M428.476 244.445V436.812C428.476 439.842 428.546 442.872 428.757 445.833C427.808 500.476 382.301 544.445 326.321 544.445C294.272 544.445 263.98 529.983 244.266 505.262C224.552 480.506 217.559 448.244 225.325 417.772L256.952 293.888C264.367 264.828 291.004 244.445 321.577 244.445H428.476ZM771.243 244.445H878.423C908.996 244.445 935.633 264.828 943.048 293.888L974.675 417.772C982.441 448.244 975.448 480.506 955.734 505.262C936.019 529.983 905.728 544.445 873.679 544.445C817.137 544.445 771.243 499.546 771.243 444.112V244.445Z" fill="#F292D8"/>
<path d="M731.288 436.916L731.463 244.445H468.537V444.112V444.732C472.649 500.476 520.125 544.445 578.072 544.445H621.436C682.055 544.445 731.217 496.344 731.288 436.916Z" fill="#F292D8"/>
</svg>
